HIERARCHY
ROOT Hips
{
  OFFSET 7.333 -26.027 -164.856
  CHANNELS 6 Xposition Yposition Zposition Zrotation Xrotation Yrotation
  JOINT LeftUpLeg
  {
    OFFSET 10.092 0.000 0.000
    CHANNELS 3 Zrotation Xrotation Yrotation
    JOINT LeftLeg
    {
      OFFSET 0.000 -38.160 -0.000
    CHANNELS 3 Zrotation Xrotation Yrotation
      JOINT LeftFoot
      {
        OFFSET -0.000 -24.040 0.000
    CHANNELS 3 Zrotation Xrotation Yrotation
        End Site
        {
          OFFSET -0.000 0.000 12.945
        }
      }
    }
  }
  JOINT RightUpLeg
  {
    OFFSET -10.092 -0.000 0.000
    CHANNELS 3 Zrotation Xrotation Yrotation
    JOINT RightLeg
    {
      OFFSET 0.000 -33.046 0.000
    CHANNELS 3 Zrotation Xrotation Yrotation
      JOINT RightFoot
      {
        OFFSET 0.000 -22.031 -0.000
    CHANNELS 3 Zrotation Xrotation Yrotation
        End Site
        {
          OFFSET 0.000 -0.000 11.863
        }
      }
    }
  }
  JOINT Spine
  {
    OFFSET -0.000 16.511 0.000
    CHANNELS 3 Zrotation Xrotation Yrotation
    JOINT LeftShoulder
    {
      OFFSET 0 16.511 0
    CHANNELS 3 Zrotation Xrotation Yrotation
      JOINT LeftArm
      {
        OFFSET 16.337 0.000 0.000
    CHANNELS 3 Zrotation Xrotation Yrotation
        JOINT LeftForeArm
        {
          OFFSET 0.000 -24.030 0.000
    CHANNELS 3 Zrotation Xrotation Yrotation
          JOINT LeftHand
          {
            OFFSET 0.000 -17.629 -0.000
    CHANNELS 3 Zrotation Xrotation Yrotation
            End Site
            {
              OFFSET 0.000 -11.753 -0.000
            }
          }
        }
      }
    }
    JOINT RightShoulder
    {
      OFFSET 0 16.511 0
    CHANNELS 3 Zrotation Xrotation Yrotation
      JOINT RightArm
      {
        OFFSET -16.337 0.000 0.000
    CHANNELS 3 Zrotation Xrotation Yrotation
        JOINT RightForeArm
        {
          OFFSET -0.000 -19.534 0.000
    CHANNELS 3 Zrotation Xrotation Yrotation
          JOINT RightHand
          {
            OFFSET 0.000 -19.514 -0.000
    CHANNELS 3 Zrotation Xrotation Yrotation
            End Site
            {
              OFFSET 0.000 -13.010 -0.000
            }
          }
        }
      }
    }
    JOINT Neck
    {
      OFFSET -0.000 16.511 0.000
    CHANNELS 3 Zrotation Xrotation Yrotation
      JOINT Head
      {
        OFFSET -0.000 12.493 -0.000
    CHANNELS 3 Zrotation Xrotation Yrotation
        End Site
        {
          OFFSET -0.000 8.328 -0.000
        }
      }
    }
  }
}
MOTION
Frames: 17
Frame Time: 0.0333333
0 0 0 2.692320e-01 1.256230e+00 -1.538020e+01 -1.675850e+00 8.388630e+00 2.445210e-01 6.428030e+00 -1.557160e+01 1.283240e+00 0 0 0 1.829410e-01 7.683480e+00 -2.449000e-02 4.952130e+00 -1.398380e+01 1.243600e+00 0 0 0 9.000000e-06 3.000000e-06 -9.000000e-05 0 0 0 1.840070e+01 -3.093280e+01 -5.224020e+01 8.934500e+01 -2.586680e+01 8.179800e+01 0 0 0 0 0 0 -1.404000e+00 -4.193860e+01 8.985960e+01 -7.264740e+01 -1.818080e+01 -4.992960e+01 0 1.000000e-06 0 -2.000010e-01 2.004470e+00 6.996000e-03 0 0 0 
0 0 0 2.160530e-01 3.676870e-01 -1.610802e+01 -2.014430e+00 1.060170e+01 3.707330e-01 6.426120e+00 -1.727880e+01 1.322990e+00 0 0 0 -2.939900e-02 8.771910e+00 4.450000e-03 4.905360e+00 -1.353310e+01 1.143690e+00 0 0 0 0 0 -4.000000e-05 0 0 0 2.164740e+01 -3.220220e+01 -4.854480e+01 1.038590e+02 -2.743190e+01 1.096230e+02 0 0 0 0 0 0 2.884610e-01 -4.592110e+01 9.210290e+01 -8.380450e+01 -1.863250e+01 -8.258310e+01 0 0 0 -1.737600e-02 1.546530e+00 4.690000e-04 0 0 0 
0 0 0 5.111045e-01 -1.924590e-01 -1.691131e+01 -3.106332e+00 1.163910e+01 6.233461e-01 7.312764e+00 -1.739972e+01 1.279074e+00 0 2.018225e-08 -1.794291e-08 -8.566174e-01 9.780650e+00 1.456156e-01 4.997986e+00 -1.421912e+01 1.021840e+00 0 0 7.160899e-08 -7.532649e-06 3.252426e-05 -2.291633e-05 0 0 0 2.228009e+01 -3.608524e+01 -5.135118e+01 1.109950e+02 -2.253553e+01 1.255760e+02 -1.489250e-07 2.656359e-07 -1.444797e-08 0 0 0 1.783575e+00 -4.853158e+01 9.396758e+01 -9.296350e+01 -1.940630e+01 -1.118130e+02 -7.829134e-08 5.693121e-09 -4.284716e-08 -8.025426e-02 1.285750e+00 1.972000e-03 0 0 1.591992e-07 
0 0 0 6.114664e-01 -4.925513e-01 -1.719983e+01 -3.938236e+00 1.254446e+01 8.568050e-01 7.970943e+00 -1.793940e+01 1.273204e+00 0 1.301371e-08 -2.154604e-08 -1.560520e+00 1.032730e+01 2.796750e-01 5.389307e+00 -1.439969e+01 9.601392e-01 0 0 -2.407699e-08 0 5.294038e-07 -9.875959e-05 0 0 0 2.104993e+01 -3.809431e+01 -5.477213e+01 1.187995e+02 -2.073146e+01 1.392564e+02 -1.520757e-07 1.016639e-07 4.646110e-08 0 0 0 4.353845e+00 -5.082698e+01 9.695394e+01 -9.812340e+01 -2.095684e+01 -1.230210e+02 -2.262711e-07 7.029760e-07 -3.267596e-08 -1.069253e-01 1.122791e+00 2.070245e-03 0 0 5.576909e-07 
0 0 0 3.980129e-01 -9.041979e-01 -1.671224e+01 -3.782588e+00 1.276087e+01 8.380262e-01 7.701731e+00 -1.660400e+01 1.148977e+00 0 1.197887e-08 2.920745e-10 -1.381453e+00 1.097338e+01 2.630378e-01 5.119440e+00 -1.397412e+01 9.097582e-01 0 0 -3.552074e-08 -5.399402e-07 -2.710030e-05 1.200188e-05 0 0 0 1.771156e+01 -3.700066e+01 -5.896078e+01 1.229966e+02 -2.126761e+01 1.439111e+02 -1.115287e-07 9.361657e-08 1.242883e-07 0 0 0 7.023393e+00 -5.189115e+01 9.989812e+01 -1.018270e+02 -2.003250e+01 -1.315647e+02 -1.052784e-07 NaN -5.243742e-07 -3.212304e-01 1.008123e+00 5.696644e-03 0 0 NaN 
0 0 0 2.018300e-01 -1.086318e+00 -1.597819e+01 -3.169708e+00 1.258351e+01 6.910094e-01 6.979935e+00 -1.528656e+01 1.026457e+00 0 1.079155e-08 3.828103e-08 -9.753741e-01 1.178219e+01 1.989660e-01 4.881131e+00 -1.414564e+01 9.604085e-01 0 0 -2.081488e-07 3.033810e-07 NaN 9.984936e-06 0 0 0 1.521515e+01 -3.995391e+01 -6.473729e+01 1.213570e+02 -1.999156e+01 1.438580e+02 -2.048732e-07 1.780395e-07 1.488832e-07 0 0 0 1.121973e+01 -5.253881e+01 1.045416e+02 -1.024192e+02 -1.936012e+01 -1.331601e+02 NaN NaN NaN -4.741741e-01 6.056376e-01 4.988087e-03 0 0 NaN 
0 0 0 1.687496e-01 -1.064083e+00 -1.701120e+01 -3.258396e+00 1.292456e+01 7.294001e-01 7.377899e+00 -1.563211e+01 1.133460e+00 0 1.191181e-08 -1.659621e-08 -9.091225e-01 1.147197e+01 1.807680e-01 4.914697e+00 -1.377398e+01 9.593488e-01 0 0 NaN 3.613689e-08 NaN -9.050513e-05 0 0 0 1.527637e+01 -3.835496e+01 -6.383876e+01 1.237580e+02 -2.042322e+01 1.461024e+02 NaN 2.285714e-07 NaN 0 0 0 1.241390e+01 -5.386055e+01 1.058434e+02 -1.020961e+02 -1.907907e+01 -1.335123e+02 -1.427806e-07 -1.620491e-07 NaN -2.041115e-01 5.147980e-01 1.824727e-03 0 0 -1.528354e-07 
0 0 0 3.645168e-01 -1.114409e+00 -1.709963e+01 -3.662232e+00 1.274379e+01 8.082511e-01 7.759290e+00 -1.518045e+01 1.097950e+00 0 1.667967e-08 -1.006772e-07 -1.181222e+00 1.206783e+01 2.471121e-01 5.124621e+00 -1.425743e+01 9.780646e-01 0 0 NaN -1.165197e-06 5.607507e-06 1.400000e-05 0 0 0 1.851688e+01 -3.894334e+01 -5.921042e+01 1.224626e+02 -1.950249e+01 1.453220e+02 NaN NaN NaN 0 0 0 9.069265e+00 -5.604256e+01 1.019295e+02 -1.026318e+02 -1.829449e+01 -1.362320e+02 -1.918477e-07 NaN 2.412517e-07 -3.109220e-01 5.705382e-01 3.088950e-03 0 0 1.147875e-07 
0 0 0 4.845548e-01 -1.301144e+00 -1.753393e+01 -4.095607e+00 1.383074e+01 9.807584e-01 7.974450e+00 -1.733352e+01 1.192497e+00 0 7.996846e-09 -3.470631e-08 -1.472597e+00 1.217338e+01 3.117692e-01 5.006661e+00 -1.439859e+01 8.858887e-01 0 0 -1.601154e-07 1.336085e-07 1.727372e-06 -4.764195e-05 0 0 0 2.426101e+01 -3.509303e+01 -4.779507e+01 1.227453e+02 -1.829770e+01 1.461280e+02 -9.746198e-08 NaN 5.198276e-08 0 0 0 -1.074657e+00 -5.547938e+01 9.056962e+01 -1.057779e+02 -1.487883e+01 -1.470056e+02 NaN 1.250000e-07 NaN -2.200273e-01 9.860669e-01 3.839815e-03 0 0 2.103589e-07 
0 0 0 4.818599e-01 -1.211670e+00 -1.683163e+01 -3.543399e+00 1.418993e+01 8.695155e-01 7.062700e+00 -1.828867e+01 1.139866e+00 0 1.111690e-08 -1.701198e-09 -1.442931e+00 1.200053e+01 2.990914e-01 5.074158e+00 -1.471079e+01 9.322909e-01 0 0 NaN 3.811820e-07 1.611212e-05 9.068189e-06 0 0 0 3.087025e+01 -3.267255e+01 -3.693613e+01 1.195811e+02 -1.315138e+01 1.484914e+02 -7.341844e-08 8.824187e-07 2.125112e-08 0 0 0 -1.538684e+01 -5.180084e+01 7.375616e+01 -1.095473e+02 -9.543901e+00 -1.613921e+02 NaN 2.519502e-08 NaN -1.825200e-01 1.076664e+00 3.426358e-03 0 0 3.423140e-07 
0 0 0 1.066414e+00 -9.723290e-01 -1.619401e+01 -4.491313e+00 1.196434e+01 9.320717e-01 7.707692e+00 -1.512300e+01 8.651693e-01 0 1.291304e-08 -1.363651e-08 -2.395726e+00 1.154384e+01 4.772669e-01 5.957276e+00 -1.446227e+01 8.988987e-01 0 0 NaN 5.890519e-07 NaN -3.926704e-06 0 0 0 3.594089e+01 -2.578531e+01 -2.426628e+01 1.134256e+02 -9.135480e+00 1.467649e+02 -1.650109e-07 4.608109e-07 1.064075e-07 0 0 0 -2.823829e+01 -4.572897e+01 5.755380e+01 -1.103338e+02 -2.650747e+00 1.635463e+02 9.518184e-08 -1.223481e-08 1.182715e-07 1.307471e-01 1.112060e+00 -2.578143e-03 0 0 NaN 
0 0 0 9.382038e-01 -1.491535e+00 -1.655361e+01 -4.495563e+00 1.257818e+01 9.808023e-01 7.543491e+00 -1.475350e+01 8.047548e-01 0 1.333647e-08 1.495510e-08 -2.558395e+00 1.208620e+01 5.362697e-01 6.243709e+00 -1.382085e+01 8.952321e-01 0 0 -6.240388e-07 5.005979e-07 NaN 1.077989e-04 0 0 0 4.057756e+01 -1.565717e+01 -9.647606e+00 1.039368e+02 -9.297994e+00 1.295670e+02 -1.829052e-07 NaN 1.601128e-07 0 0 0 -3.467650e+01 -3.505783e+01 4.582338e+01 -1.089090e+02 1.670751e+00 1.597898e+02 -8.449250e-08 1.917326e-07 -2.015957e-07 4.637369e-02 9.168257e-01 -7.390000e-04 0 0 NaN 
0 0 0 1.183336e+00 -7.980122e-01 -1.676688e+01 -4.467908e+00 1.175952e+01 9.098285e-01 6.911865e+00 -1.456726e+01 6.413002e-01 0 1.421875e-08 -3.449534e-08 -3.000720e+00 1.175210e+01 5.500187e-01 6.651380e+00 -1.498682e+01 9.619628e-01 0 0 NaN 1.953954e-06 -7.087425e-06 1.210000e-04 0 0 0 4.135348e+01 -4.692803e+00 3.266268e+00 9.464280e+01 -1.340251e+01 1.013920e+02 NaN NaN NaN 0 0 0 -3.812054e+01 -2.617632e+01 3.676834e+01 -1.058690e+02 5.182980e+00 1.296181e+02 -1.112196e-07 1.656781e-07 -1.606455e-08 -7.421688e-03 1.397474e+00 1.768589e-04 0 0 2.060833e-07 
0 0 0 1.034909e+00 -1.816090e+00 -1.797026e+01 -5.551184e+00 1.418996e+01 1.364581e+00 8.451474e+00 -1.705163e+01 9.005773e-01 0 1.789188e-08 2.941629e-08 -3.580083e+00 1.267215e+01 6.015107e-01 7.063969e+00 -1.482921e+01 9.150247e-01 0 0 NaN NaN 4.235165e-22 5.900000e-05 0 0 0 3.924049e+01 6.451717e+00 1.654319e+01 8.728085e+01 -2.167213e+01 8.422750e+01 NaN -1.212496e-09 6.366169e-08 0 0 0 -3.640957e+01 -2.022753e+01 3.361577e+01 -1.036163e+02 7.520207e+00 1.426044e+02 -1.347278e-07 NaN 5.185733e-08 2.075270e-01 1.233503e+00 -4.453259e-03 0 0 1.438417e-07 
0 0 0 1.455470e+00 -1.317280e+00 -1.829530e+01 -5.928520e+00 1.357530e+01 1.396240e+00 8.291720e+00 -1.604749e+01 6.997883e-01 0 1.993142e-08 5.953242e-09 -3.746690e+00 1.254641e+01 7.334555e-01 6.281950e+00 -1.542199e+01 6.990212e-01 0 0 -1.725987e-07 NaN NaN -2.103182e-05 0 0 0 3.738384e+01 1.147187e+01 2.311896e+01 8.265521e+01 -2.192332e+01 7.549290e+01 -8.365274e-08 2.666519e-07 1.163211e-07 0 0 0 -3.511691e+01 -1.616960e+01 3.097250e+01 -1.012637e+02 9.692773e+00 1.449882e+02 NaN NaN 7.505918e-09 1.019745e-01 1.466660e+00 -2.653098e-03 0 0 NaN 
0 0 0 1.331020e+00 -8.942120e-01 -1.784830e+01 -5.440860e+00 1.165232e+01 1.101080e+00 7.942210e+00 -1.352643e+01 6.114330e-01 0 NaN -7.973613e-08 -3.209412e+00 1.100267e+01 6.199554e-01 5.873163e+00 -1.340730e+01 6.311380e-01 0 0 NaN 4.639292e-07 -1.189294e-06 1.230000e-04 0 0 0 3.632166e+01 1.336499e+01 2.570103e+01 8.168500e+01 -2.551737e+01 7.560250e+01 -1.476744e-07 NaN NaN 0 0 0 -3.486892e+01 -1.378267e+01 2.861173e+01 -9.883897e+01 1.055435e+01 1.461068e+02 -1.236859e-07 -3.162162e-08 2.207582e-08 8.599532e-02 1.489742e+00 -2.244231e-03 0 0 7.630568e-08 
0 0 0 1.528934e+00 -7.577989e-01 -1.775394e+01 -5.599460e+00 1.178670e+01 1.147292e+00 8.107120e+00 -1.448320e+01 6.573055e-01 0 1.837834e-08 2.689553e-08 -3.441947e+00 1.042790e+01 5.452163e-01 6.026354e+00 -1.294140e+01 5.917470e-01 0 0 NaN -4.059954e-07 2.874200e-06 4.300000e-05 0 0 0 3.528917e+01 1.294652e+01 2.614486e+01 8.299778e+01 -2.543992e+01 7.799671e+01 NaN NaN 5.206859e-08 0 0 0 -3.419310e+01 -1.432878e+01 2.972446e+01 -9.922819e+01 1.237374e+01 1.447754e+02 -4.169173e-08 3.389083e-08 -1.002805e-09 -5.031239e-02 1.658636e+00 1.484943e-03 0 0 9.936043e-08 
